<?xml version="1.0" encoding="utf-8"?>
<!-- Generator: Adobe Illustrator 17.0.1, SVG Export Plug-In . SVG Version: 6.00 Build 0)  -->
<!DOCTYPE svg PUBLIC "-//W3C//DTD SVG 1.1//EN" "http://www.w3.org/Graphics/SVG/1.1/DTD/svg11.dtd">
<svg version="1.1" id="Слой_1" xmlns="http://www.w3.org/2000/svg" xmlns:xlink="http://www.w3.org/1999/xlink" x="0px" y="0px"
	 width="26.902px" height="28px" viewBox="0 0 26.902 28" enable-background="new 0 0 26.902 28" xml:space="preserve">
<g>
	<g>
		<path fill="#7BC1C9" d="M14,0C6.268,0,0,6.268,0,14c0,7.732,6.268,14,14,14c7.732,0,14-6.268,14-14C28,6.268,21.732,0,14,0z
			 M14,26.901C6.875,26.901,1.098,21.125,1.098,14S6.875,1.098,14,1.098c7.125,0,12.902,5.776,12.902,12.902
			S21.126,26.901,14,26.901z M8.569,15.249h2.633v-2.003H8.569v-2.003h3.012V9.239H6.566v10.015h5.183v-2.003h-3.18V15.249z
			 M19.211,14.913l-5.057-5.883h-0.532v10.226h2.003v-5.449l5.071,5.659h0.532V9.253h-2.017V14.913z"/>
	</g>
</g>
</svg>
