<?xml version="1.0" encoding="utf-8"?>
<!-- Generator: Adobe Illustrator 17.0.1, SVG Export Plug-In . SVG Version: 6.00 Build 0)  -->
<!DOCTYPE svg PUBLIC "-//W3C//DTD SVG 1.1//EN" "http://www.w3.org/Graphics/SVG/1.1/DTD/svg11.dtd">
<svg version="1.1" id="Слой_1" xmlns="http://www.w3.org/2000/svg" xmlns:xlink="http://www.w3.org/1999/xlink" x="0px" y="0px"
	 width="245px" height="53px" viewBox="0 0 245 53" enable-background="new 0 0 245 53" xml:space="preserve">
<g>
	<g>
		<path fill="#FFFFFF" d="M115.292,20.76c-8.008,0-8.008,12.376,0,12.376C123.3,33.136,123.3,20.76,115.292,20.76z M0,0v53h245V0H0z
			 M99.752,30.98c0,3.332-2.632,6.02-5.908,6.02h-3.948v-4.004h3.836c1.148,0,2.044-0.896,2.044-2.016v-14h3.976V30.98z
			 M115.292,37.28c-13.776,0-13.776-20.636,0-20.636C129.068,16.644,129.068,37.28,115.292,37.28z M134.779,37h-4.004V16.98h4.004
			V37z M155.891,37.42h-1.064l-10.136-11.312V37h-4.004V16.56h1.064l10.108,11.76V17.008h4.032V37.42z"/>
	</g>
</g>
</svg>
