<?xml version="1.0" encoding="utf-8"?>
<!-- Generator: Adobe Illustrator 17.0.1, SVG Export Plug-In . SVG Version: 6.00 Build 0)  -->
<!DOCTYPE svg PUBLIC "-//W3C//DTD SVG 1.1//EN" "http://www.w3.org/Graphics/SVG/1.1/DTD/svg11.dtd">
<svg version="1.1" id="Слой_1" xmlns="http://www.w3.org/2000/svg" xmlns:xlink="http://www.w3.org/1999/xlink" x="0px" y="0px"
	 width="240.541px" height="108.504px" viewBox="0 0 240.541 108.504" enable-background="new 0 0 240.541 108.504"
	 xml:space="preserve">
<g>
	<g>
		<polygon fill-rule="evenodd" clip-rule="evenodd" fill="#5BB5AE" points="0,20.668 0,93.006 17.898,103.337 17.898,10.334 		"/>
		<polygon fill-rule="evenodd" clip-rule="evenodd" fill="#A2D4EC" points="17.898,10.334 0,20.668 0,0 		"/>
	</g>
	<g>
		<path fill-rule="evenodd" clip-rule="evenodd" fill="#5BB5AE" d="M21.124,25.834c0,20.668,0,51.667,0,72.337l17.898,10.333V77.501
			L56.92,87.838L92.719,67.17V25.834L74.821,36.167v20.668L56.92,67.17L39.022,56.835V36.167L21.124,25.834z"/>
		<polygon fill-rule="evenodd" clip-rule="evenodd" fill="#64BBD6" points="56.92,5.167 21.124,25.834 39.022,36.167 56.92,25.834 
			74.821,36.167 92.719,25.834 		"/>
		<polygon fill-rule="evenodd" clip-rule="evenodd" fill="#A2D4EC" points="39.022,36.167 56.92,46.502 56.92,67.17 39.022,56.835 
					"/>
		<polygon fill-rule="evenodd" clip-rule="evenodd" fill="#78C0C6" points="74.821,36.167 56.92,46.502 56.92,67.17 74.821,56.835 
					"/>
	</g>
	<g>
		<path fill-rule="evenodd" clip-rule="evenodd" fill="#5BB5AE" d="M168.946,25.834c0,20.668,0,51.667,0,72.337l17.898,10.333
			V77.501l17.898,10.337l35.799-20.668V25.834l-17.898,10.333v20.668l-17.9,10.335l-17.898-10.335V36.167L168.946,25.834z"/>
		<polygon fill-rule="evenodd" clip-rule="evenodd" fill="#64BBD6" points="204.742,5.167 168.946,25.834 186.844,36.167 
			204.742,25.834 222.643,36.167 240.541,25.834 		"/>
		<polygon fill-rule="evenodd" clip-rule="evenodd" fill="#A2D4EC" points="186.844,36.167 204.742,46.502 204.742,67.17 
			186.844,56.835 		"/>
		<polygon fill-rule="evenodd" clip-rule="evenodd" fill="#78C0C6" points="222.643,36.167 204.742,46.502 204.742,67.17 
			222.643,56.835 		"/>
	</g>
	<g>
		<path fill-rule="evenodd" clip-rule="evenodd" fill="#78C0C6" d="M130.753,87.837l0.043-20.622
			c-9.021-5.21-13.426-7.733-17.941-10.332V36.166l-17.9-10.333v41.336L130.753,87.837z"/>
		<polygon fill-rule="evenodd" clip-rule="evenodd" fill="#5BB5AE" points="130.753,5.166 130.753,25.877 148.652,36.166 
			166.55,25.833 		"/>
		<polygon fill-rule="evenodd" clip-rule="evenodd" fill="#A2D4EC" points="94.955,25.833 112.854,36.166 130.753,25.877 
			130.753,5.166 		"/>
		<polygon fill-rule="evenodd" clip-rule="evenodd" fill="#5BB5AE" points="148.652,56.834 148.652,77.501 130.753,87.837 
			112.854,77.501 94.955,87.837 130.753,108.504 166.55,87.837 166.55,46.501 		"/>
		<polygon fill-rule="evenodd" clip-rule="evenodd" fill="#A2D4EC" points="130.753,67.169 148.652,56.834 148.652,77.501 
			130.753,87.837 		"/>
		<polygon fill-rule="evenodd" clip-rule="evenodd" fill="#64BBD6" points="166.55,46.501 130.753,25.833 130.753,25.877 
			112.854,36.212 112.854,56.879 130.753,46.544 130.753,46.524 148.652,56.834 		"/>
	</g>
</g>
</svg>
