<?xml version="1.0" encoding="utf-8"?>
<!-- Generator: Adobe Illustrator 17.0.1, SVG Export Plug-In . SVG Version: 6.00 Build 0)  -->
<!DOCTYPE svg PUBLIC "-//W3C//DTD SVG 1.1//EN" "http://www.w3.org/Graphics/SVG/1.1/DTD/svg11.dtd">
<svg version="1.1" id="Слой_1" xmlns="http://www.w3.org/2000/svg" xmlns:xlink="http://www.w3.org/1999/xlink" x="0px" y="0px"
	 width="28px" height="28px" viewBox="0 0 28 28" enable-background="new 0 0 28 28" xml:space="preserve">
<g>
	<g>
		<path fill="#7BC1C9" d="M10.334,11.243H8.569v2.241h1.765C11.693,13.484,11.693,11.243,10.334,11.243z M14,0C6.268,0,0,6.268,0,14
			c0,7.732,6.268,14,14,14s14-6.268,14-14C28,6.268,21.732,0,14,0z M11.553,19.255l-2.017-3.824H8.569v3.824H6.566V9.239h3.95
			c3.572,0,3.922,5.029,0.98,5.883l2.325,4.133H11.553z M22.334,15.767c0,4.763-7.242,4.763-7.242,0V9.239h2.003v6.513
			c0,2.101,3.25,2.101,3.25,0V9.239h1.989V15.767z"/>
	</g>
</g>
</svg>
