<?xml version="1.0" encoding="utf-8"?>
<!-- Generator: Adobe Illustrator 17.0.1, SVG Export Plug-In . SVG Version: 6.00 Build 0)  -->
<!DOCTYPE svg PUBLIC "-//W3C//DTD SVG 1.1//EN" "http://www.w3.org/Graphics/SVG/1.1/DTD/svg11.dtd">
<svg version="1.1" id="Слой_1" xmlns="http://www.w3.org/2000/svg" xmlns:xlink="http://www.w3.org/1999/xlink" x="0px" y="0px"
	 width="28px" height="28px" viewBox="0 0 28 28" enable-background="new 0 0 28 28" xml:space="preserve">
<g>
	<g>
		<path fill="#7BC1C9" d="M10.516,9.239h-3.95v10.015h2.003v-3.824h0.966l2.017,3.824h2.269l-2.325-4.132
			C14.438,14.268,14.088,9.239,10.516,9.239z M10.334,13.484H8.569v-2.241h1.765C11.693,11.242,11.693,13.484,10.334,13.484z M14,0
			C6.268,0,0,6.268,0,14c0,7.732,6.268,14,14,14c7.732,0,14-6.268,14-14C28,6.268,21.732,0,14,0z M14,26.901
			C6.874,26.901,1.098,21.125,1.098,14S6.874,1.098,14,1.098S26.902,6.874,26.902,14S21.126,26.901,14,26.901z M20.345,15.753
			c0,2.101-3.25,2.101-3.25,0V9.239h-2.003v6.527c0,4.763,7.242,4.763,7.242,0V9.239h-1.989V15.753z"/>
	</g>
</g>
</svg>
