<?xml version="1.0" encoding="utf-8"?>
<!-- Generator: Adobe Illustrator 17.0.1, SVG Export Plug-In . SVG Version: 6.00 Build 0)  -->
<!DOCTYPE svg PUBLIC "-//W3C//DTD SVG 1.1//EN" "http://www.w3.org/Graphics/SVG/1.1/DTD/svg11.dtd">
<svg version="1.1" id="Слой_1" xmlns="http://www.w3.org/2000/svg" xmlns:xlink="http://www.w3.org/1999/xlink" x="0px" y="0px"
	 width="62px" height="59.568px" viewBox="0 0 62 59.568" enable-background="new 0 0 62 59.568" xml:space="preserve">
<g>
	<g>
		<path fill="#FFFFFF" d="M31,0C13.879,0,0,13.879,0,31c0,17.121,13.879,31,31,31s31-13.879,31-31C62,13.879,48.121,0,31,0z
			 M31,59.568C15.222,59.568,2.431,46.778,2.431,31C2.431,15.222,15.222,2.431,31,2.431c15.778,0,28.569,12.79,28.569,28.568
			C59.569,46.778,46.778,59.568,31,59.568z M45.956,41.092c0-2.961-4.111-6.401-10.166-7.71C37.032,31.965,38,30.04,38,27.852
			v-3.836C38,19.446,34.783,16,30.5,16S23,19.446,23,24.016v3.836c0,2.305,0.588,4.32,1.951,5.756
			c-5.171,1.335-9.843,4.251-9.843,7.519c0,0.07-0.068,0.143-0.076,0.217c-0.05,0.488-0.197,1.633,1.118,2.317
			C18.967,45.126,24.318,46,30.487,46c6.169,0,11.528-0.874,14.347-2.339c1.313-0.684,1.188-1.851,1.139-2.35
			C45.965,41.235,45.956,41.162,45.956,41.092z M25,24.016c0-3.414,2.357-5.99,5.5-5.99c3.141,0,5.5,2.575,5.5,5.99v3.836
			c0,3.415-2.359,5.99-5.5,5.99c-3.143,0-5.5-2.575-5.5-5.99V24.016z M43.909,41.859c-2.51,1.304-7.659,2.114-13.437,2.114
			c-5.778,0-10.926-0.811-13.435-2.113c-0.046-0.026-0.076-0.045-0.089-0.049c-0.001-0.063,0.01-0.178,0.019-0.259
			c0.015-0.146,0.027-0.288,0.027-0.425c0-1.799,4.003-4.977,9.878-5.965c0.956,0.45,2.024,0.705,3.172,0.705
			c1.234,0,2.376-0.294,3.383-0.811c6.229,0.847,10.524,4.181,10.524,6.035c0,0.134,0.012,0.277,0.027,0.423
			c0.011,0.106,0.026,0.266,0.037,0.273C44.016,41.789,43.99,41.817,43.909,41.859z"/>
	</g>
</g>
</svg>
