<?xml version="1.0" encoding="utf-8"?>
<!-- Generator: Adobe Illustrator 17.0.1, SVG Export Plug-In . SVG Version: 6.00 Build 0)  -->
<!DOCTYPE svg PUBLIC "-//W3C//DTD SVG 1.1//EN" "http://www.w3.org/Graphics/SVG/1.1/DTD/svg11.dtd">
<svg version="1.1" id="Слой_1" xmlns="http://www.w3.org/2000/svg" xmlns:xlink="http://www.w3.org/1999/xlink" x="0px" y="0px"
	 width="62px" height="62px" viewBox="0 0 62 62" enable-background="new 0 0 62 62" xml:space="preserve">
<g>
	<g>
		<path fill="#FFFFFF" d="M31,0C13.879,0,0,13.879,0,31c0,17.121,13.879,31,31,31s31-13.879,31-31C62,13.879,48.121,0,31,0z
			 M31,59.568C15.222,59.568,2.431,46.778,2.431,31C2.431,15.222,15.222,2.431,31,2.431c15.778,0,28.569,12.79,28.569,28.568
			C59.569,46.778,46.778,59.568,31,59.568z M44.279,17.494l-29.5,15.75c-0.393,0.209-0.6,0.652-0.508,1.087
			c0.091,0.435,0.459,0.758,0.901,0.792l12.148,0.935l0.932,11.648c0.036,0.442,0.359,0.81,0.795,0.9
			c0.067,0.013,0.136,0.02,0.202,0.02c0.365,0,0.708-0.2,0.884-0.532l15.5-29.25c0.206-0.388,0.134-0.865-0.178-1.176
			C45.144,17.357,44.666,17.285,44.279,17.494z M29.974,44.125l-0.727-9.08c-0.039-0.49-0.43-0.879-0.92-0.917l-9.579-0.736
			l23.586-12.593L29.974,44.125z"/>
	</g>
</g>
</svg>
