<?xml version="1.0" encoding="utf-8"?>
<!-- Generator: Adobe Illustrator 17.0.1, SVG Export Plug-In . SVG Version: 6.00 Build 0)  -->
<!DOCTYPE svg PUBLIC "-//W3C//DTD SVG 1.1//EN" "http://www.w3.org/Graphics/SVG/1.1/DTD/svg11.dtd">
<svg version="1.1" id="Слой_1" xmlns="http://www.w3.org/2000/svg" xmlns:xlink="http://www.w3.org/1999/xlink" x="0px" y="0px"
	 width="59.569px" height="62px" viewBox="0 0 59.569 62" enable-background="new 0 0 59.569 62" xml:space="preserve">
<g>
	<g>
		<path fill="#FFFFFF" d="M31,0C13.879,0,0,13.879,0,31c0,17.121,13.879,31,31,31c17.121,0,31-13.879,31-31C62,13.879,48.121,0,31,0
			z M31,59.568C15.222,59.568,2.431,46.778,2.431,31C2.431,15.222,15.222,2.431,31,2.431S59.569,15.222,59.569,31
			C59.569,46.778,46.778,59.568,31,59.568z M44.523,17.121l-30,16.271c-0.327,0.177-0.528,0.521-0.523,0.893
			c0.005,0.371,0.215,0.709,0.547,0.878l7.751,3.94l5.852,9.424C28.333,48.822,28.655,49,29,49h0.033
			c0.357,0,0.681-0.213,0.85-0.529l16-30c0.208-0.39,0.136-0.869-0.178-1.181C45.391,16.979,44.912,16.911,44.523,17.121z
			 M17.15,34.243L39.2,22.284L22.839,37.135L17.15,34.243z M28.934,45.998l-4.645-7.479l16.737-15.192L28.934,45.998z"/>
	</g>
</g>
</svg>
