<?xml version="1.0" encoding="utf-8"?>
<!-- Generator: Adobe Illustrator 17.0.1, SVG Export Plug-In . SVG Version: 6.00 Build 0)  -->
<!DOCTYPE svg PUBLIC "-//W3C//DTD SVG 1.1//EN" "http://www.w3.org/Graphics/SVG/1.1/DTD/svg11.dtd">
<svg version="1.1" id="Слой_1" xmlns="http://www.w3.org/2000/svg" xmlns:xlink="http://www.w3.org/1999/xlink" x="0px" y="0px"
	 width="62px" height="62px" viewBox="0 0 62 62" enable-background="new 0 0 62 62" xml:space="preserve">
<g>
	<g>
		<path fill="#FFFFFF" d="M31,0C13.879,0,0,13.879,0,31c0,17.121,13.879,31,31,31s31-13.879,31-31C62,13.879,48.121,0,31,0z
			 M31,59.568C15.222,59.568,2.431,46.778,2.431,31C2.431,15.222,15.222,2.431,31,2.431c15.778,0,28.569,12.79,28.569,28.568
			C59.569,46.778,46.778,59.568,31,59.568z M45,14c-1.654,0-3,1.346-3,3c0,0.876,0.384,1.658,0.985,2.208l-5.814,13.81
			C37.113,33.013,37.059,33,37,33c-0.649,0-1.246,0.212-1.737,0.564l-5.383-3.769C29.95,29.54,30,29.277,30,29c0-1.654-1.346-3-3-3
			s-3,1.346-3,3c0,0.746,0.284,1.421,0.736,1.947l-5.203,9.107C19.358,40.022,19.182,40,19,40c-1.654,0-3,1.346-3,3
			c0,1.654,1.346,3,3,3c1.654,0,3-1.346,3-3c0-0.746-0.284-1.421-0.736-1.946l5.204-9.107C26.642,31.977,26.818,32,27,32
			c0.648,0,1.246-0.212,1.737-0.563l5.384,3.769C34.05,35.46,34,35.723,34,36c0,1.654,1.346,3,3,3s3-1.346,3-3
			c0-0.876-0.384-1.658-0.985-2.208l5.815-13.81C44.887,19.986,44.941,20,45,20c1.654,0,3-1.346,3-3C48,15.345,46.654,14,45,14z
			 M20,44h-2v-2h2V44z M28,30h-2v-2h2V30z M38,37h-2v-2h2V37z M46,18h-2v-2h2V18z"/>
	</g>
</g>
</svg>
