<?xml version="1.0" encoding="utf-8"?>
<!-- Generator: Adobe Illustrator 17.0.1, SVG Export Plug-In . SVG Version: 6.00 Build 0)  -->
<!DOCTYPE svg PUBLIC "-//W3C//DTD SVG 1.1//EN" "http://www.w3.org/Graphics/SVG/1.1/DTD/svg11.dtd">
<svg version="1.1" id="Слой_1" xmlns="http://www.w3.org/2000/svg" xmlns:xlink="http://www.w3.org/1999/xlink" x="0px" y="0px"
	 width="26.902px" height="28px" viewBox="0 0 26.902 28" enable-background="new 0 0 26.902 28" xml:space="preserve">
<g>
	<g>
		<path fill-rule="evenodd" clip-rule="evenodd" fill="#7BC1CA" d="M17.599,12.161c0.032-0.195,0.053-0.392,0.053-0.596V9.739
			c0-2.017-1.635-3.652-3.652-3.652c-2.017,0-3.652,1.635-3.652,3.652v1.826c0,0.203,0.021,0.401,0.053,0.596
			c-2.211,0.785-3.705,2.267-3.705,3.97v3.196c0,0.252,0.204,0.456,0.457,0.456h9.594v-0.913H7.609V16.13
			c0-1.315,1.22-2.464,3.044-3.107c0.563,1.291,1.849,2.194,3.347,2.194c1.498,0,2.784-0.903,3.348-2.194
			c1.824,0.643,3.044,1.792,3.044,3.107v1.37h0.001v2.283h0.456c0.252,0,0.456-0.205,0.456-0.456V16.13
			C21.304,14.427,19.81,12.945,17.599,12.161z M16.739,11.565c0,0.112-0.02,0.219-0.033,0.327c-0.066,0.55-0.292,1.046-0.634,1.446
			c-0.017,0.019-0.032,0.04-0.049,0.06c-0.066,0.073-0.135,0.14-0.209,0.205c-0.045,0.04-0.091,0.077-0.139,0.114
			c-0.066,0.051-0.129,0.104-0.2,0.149c-0.116,0.075-0.239,0.141-0.366,0.199c-0.048,0.021-0.099,0.038-0.149,0.056
			c-0.105,0.04-0.213,0.074-0.324,0.101c-0.049,0.012-0.097,0.023-0.147,0.033c-0.159,0.029-0.322,0.049-0.49,0.049
			s-0.331-0.02-0.49-0.049c-0.05-0.009-0.098-0.021-0.147-0.033c-0.111-0.027-0.219-0.061-0.324-0.101
			c-0.05-0.019-0.1-0.035-0.149-0.056c-0.127-0.058-0.25-0.123-0.366-0.199c-0.07-0.045-0.134-0.098-0.2-0.149
			c-0.047-0.037-0.094-0.074-0.139-0.114c-0.073-0.065-0.143-0.133-0.209-0.205c-0.017-0.019-0.032-0.04-0.049-0.06
			c-0.343-0.4-0.568-0.896-0.634-1.446c-0.013-0.108-0.033-0.215-0.033-0.327V9.739C11.261,8.226,12.487,7,14,7
			s2.739,1.226,2.739,2.739V11.565z M14,0C6.268,0,0,6.268,0,14c0,7.732,6.268,14,14,14s14-6.268,14-14C28,6.268,21.732,0,14,0z
			 M14,26.901C6.875,26.901,1.098,21.125,1.098,14S6.875,1.098,14,1.098c7.126,0,12.902,5.776,12.902,12.902
			S21.126,26.901,14,26.901z"/>
	</g>
</g>
</svg>
